<svg width="40" height="40" viewBox="0 0 40 40" fill="none" xmlns="http://www.w3.org/2000/svg">
<path d="M24.6 7.50264e-07L25.6 6.3C26.2333 6.53333 26.9 6.85 27.6 7.25C28.3 7.65 28.9167 8.06667 29.45 8.5L35.35 5.8L40 14L34.6 17.95C34.6667 18.25 34.7083 18.5917 34.725 18.975C34.7417 19.3583 34.75 19.7 34.75 20C34.75 20.3 34.7417 20.6417 34.725 21.025C34.7083 21.4083 34.6667 21.75 34.6 22.05L40 26L35.35 34.2L29.45 31.5C28.9167 31.9333 28.3 32.35 27.6 32.75C26.9 33.15 26.2333 33.45 25.6 33.65L24.6 40L15.4 40L14.4 33.7C13.7667 33.4667 13.0917 33.1583 12.375 32.775C11.6583 32.3917 11.05 31.9667 10.55 31.5L4.65 34.2L-1.81997e-06 26L5.4 22.15C5.33333 21.8167 5.29166 21.4583 5.275 21.075C5.25833 20.6917 5.25 20.3333 5.25 20C5.25 19.6667 5.25833 19.3167 5.275 18.95C5.29166 18.5833 5.33333 18.2333 5.4 17.9L-2.86904e-06 14L4.65 5.8L10.55 8.5C11.0833 8.06667 11.6917 7.64167 12.375 7.225C13.0583 6.80834 13.7333 6.5 14.4 6.3L15.4 1.55455e-06L24.6 7.50264e-07ZM20 13.5C18.2 13.5 16.6667 14.1333 15.4 15.4C14.1333 16.6667 13.5 18.2 13.5 20C13.5 21.8 14.1333 23.3333 15.4 24.6C16.6667 25.8667 18.2 26.5 20 26.5C21.8 26.5 23.3333 25.8667 24.6 24.6C25.8667 23.3333 26.5 21.8 26.5 20C26.5 18.2 25.8667 16.6667 24.6 15.4C23.3333 14.1333 21.8 13.5 20 13.5ZM20 16.5C20.9667 16.5 21.7917 16.8417 22.475 17.525C23.1583 18.2083 23.5 19.0333 23.5 20C23.5 20.9667 23.1583 21.7917 22.475 22.475C21.7917 23.1583 20.9667 23.5 20 23.5C19.0333 23.5 18.2083 23.1583 17.525 22.475C16.8417 21.7917 16.5 20.9667 16.5 20C16.5 19.0333 16.8417 18.2083 17.525 17.525C18.2083 16.8417 19.0333 16.5 20 16.5ZM22.2 3L17.8 3L17.1 8.6C16 8.86667 14.9583 9.28334 13.975 9.85C12.9917 10.4167 12.1 11.1 11.3 11.9L6 9.6L4 13.2L8.7 16.65C8.56666 17.2167 8.45833 17.775 8.375 18.325C8.29166 18.875 8.25 19.4333 8.25 20C8.25 20.5667 8.28333 21.125 8.35 21.675C8.41666 22.225 8.53333 22.7833 8.7 23.35L4 26.8L6 30.4L11.3 28.1C12.0667 28.9667 12.9333 29.6917 13.9 30.275C14.8667 30.8583 15.9333 31.2333 17.1 31.4L17.8 37L22.2 37L22.9 31.4C24.0333 31.1667 25.0917 30.7667 26.075 30.2C27.0583 29.6333 27.9333 28.9333 28.7 28.1L34 30.4L36 26.8L31.3 23.35C31.4333 22.7833 31.5417 22.225 31.625 21.675C31.7083 21.125 31.75 20.5667 31.75 20C31.75 19.4333 31.7083 18.875 31.625 18.325C31.5417 17.775 31.4333 17.2167 31.3 16.65L36 13.2L34 9.6L28.7 11.9C27.9 11.1 27.0083 10.4167 26.025 9.85C25.0417 9.28333 24 8.86667 22.9 8.6L22.2 3Z" fill="#EF5600"/>
</svg>
